<svg width="146" height="42" viewBox="0 0 146 42" fill="none" xmlns="http://www.w3.org/2000/svg">
<g clip-path="url(#clip0_958_479)">
<path fill-rule="evenodd" clip-rule="evenodd" d="M14.15 0.0700012C14.04 0.0900012 13.59 0.179998 13.15 0.259998C10.34 0.789998 7.33006 2.36 5.16006 4.41C4.63006 4.91 4.21006 5.34 4.23006 5.37C4.25006 5.39 7.28006 5.76 10.96 6.2C14.64 6.64 17.77 7.01 17.92 7.03C18.13 7.06 18.2 7.01 18.25 6.83C18.28 6.71 18.43 6.46 18.59 6.27L18.88 5.94L17.18 2.97L15.48 0L14.92 0.00999756C14.61 0.0199976 14.26 0.0400012 14.15 0.0700012Z" fill="white"/>
<path fill-rule="evenodd" clip-rule="evenodd" d="M17.52 0.0899316C17.54 0.149932 18.05 1.37993 18.65 2.83993L19.75 5.49993H20.29C21.13 5.49993 21.81 5.89993 22.25 6.64993C22.35 6.80993 22.57 6.77993 25.49 6.07993L28.61 5.33993L27.62 4.37993C25.97 2.79993 23.8 1.49993 21.58 0.759927C19.99 0.229927 17.42 -0.190068 17.52 0.0899316Z" fill="white"/>
<path fill-rule="evenodd" clip-rule="evenodd" d="M38.8 11.85V17.9H40.05H41.3V15.71V13.53L42.54 13.48C43.65 13.44 43.84 13.4 44.42 13.13C45.57 12.59 46.21 11.68 46.43 10.29C46.55 9.48005 46.42 8.46005 46.11 7.75005C45.66 6.73005 44.66 6.08005 43.28 5.90005C42.88 5.85005 41.71 5.80005 40.68 5.80005H38.8V11.85ZM43.4 8.35005C43.8 8.56005 44 8.98005 44 9.60005C44 10.74 43.57 11.1 42.21 11.1H41.3V9.65005V8.20005H42.2C42.82 8.20005 43.2 8.25005 43.4 8.35005Z" fill="white"/>
<path fill-rule="evenodd" clip-rule="evenodd" d="M50.83 5.93997C50.25 6.12997 49.79 6.42997 49.3 6.95997C48.4 7.93997 48.27 8.61997 48.32 12.2C48.36 14.4 48.4 15.05 48.53 15.45C49.07 17.11 50.35 17.96 52.25 17.94C53.86 17.92 54.96 17.26 55.62 15.92L55.95 15.25L55.98 12.12C56.01 8.60997 55.97 8.28997 55.34 7.31997C54.66 6.27997 53.64 5.79997 52.17 5.80997C51.66 5.80997 51.06 5.86997 50.83 5.93997ZM52.95 8.41997C53.46 8.81997 53.5 9.05997 53.5 11.95C53.5 14.87 53.47 15.06 52.9 15.35C52.74 15.43 52.39 15.5 52.11 15.5C51.5 15.5 51.06 15.17 50.9 14.62C50.85 14.41 50.8 13.15 50.8 11.77C50.8 9.00997 50.85 8.74997 51.42 8.39997C51.87 8.11997 52.59 8.12997 52.95 8.41997Z" fill="white"/>
<path fill-rule="evenodd" clip-rule="evenodd" d="M60.93 5.94C60.34 6.13 59.89 6.43 59.4 6.96C58.5 7.93 58.37 8.68 58.42 12.22C58.46 14.57 58.49 14.92 58.68 15.51C59.05 16.65 59.71 17.33 60.85 17.76C61.57 18.03 63.04 18.01 63.82 17.71C64.85 17.31 65.8099 16.22 65.9599 15.28L66.02 14.95L65 14.67C64.44 14.51 63.92 14.36 63.85 14.33C63.75 14.3 63.65 14.42 63.54 14.69C63.33 15.22 62.88 15.5 62.24 15.5C61.67 15.5 61.38 15.33 61.12 14.87C60.97 14.59 60.95 14.23 60.95 11.85C60.95 9.46 60.97 9.11 61.13 8.83C61.37 8.37 61.82 8.17 62.42 8.22C62.98 8.28 63.33 8.55 63.59 9.11L63.75 9.47L64.91 9.12L66.0799 8.77L65.9799 8.41C65.7099 7.43 64.96 6.56 64.02 6.12C63.53 5.89 63.3 5.85 62.4 5.83C61.73 5.81 61.2 5.85 60.93 5.94Z" fill="white"/>
<path fill-rule="evenodd" clip-rule="evenodd" d="M70.68 5.94C69.65 6.32 68.96 6.94 68.51 7.9L68.25 8.45L68.22 11.58C68.19 14.26 68.21 14.79 68.35 15.27C68.81 16.85 69.72 17.66 71.29 17.91C73.11 18.19 74.81 17.4 75.45 15.96C75.89 15 75.88 15 74.8 14.69C73.31 14.25 73.45 14.25 73.27 14.7C73.05 15.28 72.6 15.52 71.86 15.47C71.37 15.44 71.23 15.39 71.04 15.17C70.72 14.79 70.68 14.38 70.72 11.47L70.75 8.88L71.12 8.54C71.44 8.25 71.57 8.2 71.98 8.2C72.64 8.2 73.11 8.53 73.33 9.14L73.45 9.48L74.62 9.12C75.9701 8.72 75.9301 8.78 75.3901 7.69C75.0601 7.02 74.47 6.47 73.71 6.11C73.23 5.89 72.99 5.85 72.1 5.83C71.41 5.81 70.93 5.85 70.68 5.94Z" fill="white"/>
<path fill-rule="evenodd" clip-rule="evenodd" d="M78.2001 11.85V17.9H81.7H85.2V16.7V15.5H82.95H80.7001V14.2V12.9H82.65H84.6V11.75V10.6H82.65H80.7001V9.40005V8.20005H82.95H85.2V7.00005V5.80005H81.7H78.2001V11.85Z" fill="white"/>
<path fill-rule="evenodd" clip-rule="evenodd" d="M86.6 5.82005C86.59 5.84005 86.5801 6.36005 86.5701 6.98005L86.55 8.10005H87.83H89.1V13V17.9H90.35H91.6V13V8.10005H92.9H94.2001V6.95005V5.80005H90.4C88.31 5.80005 86.6 5.81005 86.6 5.82005Z" fill="white"/>
<path fill-rule="evenodd" clip-rule="evenodd" d="M96.2 11.85V17.9H97.38H98.55L100.2 14.68L101.85 11.46L101.88 14.68L101.9 17.9H103.15H104.4V11.85V5.80005H103.29H102.19L100.45 9.32005L98.72 12.85L98.71 9.32005L98.7 5.80005H97.45H96.2V11.85Z" fill="white"/>
<path fill-rule="evenodd" clip-rule="evenodd" d="M27.7999 7.10999C26.9999 7.20999 25.4999 7.39999 24.4599 7.51999L22.5699 7.74999L22.3999 8.24999C22.3099 8.51999 22.2099 8.78999 22.1899 8.84999C22.1699 8.89999 24.3099 11 26.9399 13.5C32.4299 18.71 32.5799 18.85 32.6799 18.75C32.7199 18.72 32.7499 17.66 32.7499 16.42C32.7499 14.43 32.7199 14.02 32.5199 13.1C32.0799 11.09 31.3699 9.30999 30.3699 7.71999C29.7699 6.76999 30.0099 6.82999 27.7999 7.10999Z" fill="white"/>
<path fill-rule="evenodd" clip-rule="evenodd" d="M2.41999 7.77009C0.579982 10.8201 -0.270019 14.5101 0.0899812 17.8501C0.159981 18.4501 0.229981 18.9601 0.249981 18.9801C0.279981 19.0101 8.11999 14.4201 16.68 9.37009C18.14 8.52009 18.21 8.46009 18.15 8.21009C18.11 8.07009 18.08 7.94009 18.06 7.93009C18.05 7.92009 14.96 7.75009 11.2 7.56009C7.42999 7.36009 4.00999 7.18009 3.58999 7.15009L2.82999 7.09009L2.41999 7.77009Z" fill="white"/>
<path fill-rule="evenodd" clip-rule="evenodd" d="M9.69999 15.06C4.83999 18.27 0.819992 20.94 0.769992 20.99C0.549992 21.21 1.80999 24.01 2.78999 25.46C4.06999 27.36 5.45999 28.73 7.38999 30.02L8.42999 30.7L13.71 20.09C18.59 10.3 18.99 9.45996 18.83 9.33996C18.73 9.26996 18.63 9.20996 18.6 9.20996C18.57 9.21996 14.57 11.85 9.69999 15.06Z" fill="white"/>
<path fill-rule="evenodd" clip-rule="evenodd" d="M21.18 9.67011C21.08 9.69011 21 9.75011 21 9.78011C20.99 9.91011 24.33 30.6501 24.36 30.6901C24.42 30.7601 26.17 29.5601 26.9 28.9501C29.17 27.0601 30.93 24.5401 31.86 21.8601C31.99 21.4801 32.1 21.1101 32.1 21.0301C32.1 20.8601 21.62 9.60011 21.47 9.61011C21.4 9.62011 21.27 9.64011 21.18 9.67011Z" fill="white"/>
<path fill-rule="evenodd" clip-rule="evenodd" d="M19.5299 10.27C19.4099 10.54 17.9599 13.83 16.2999 17.6C10.8499 29.97 10.1799 31.51 10.2099 31.54C10.3799 31.67 11.8799 32.13 12.8099 32.34C15.8199 33.01 19.2299 32.8 21.9899 31.78L22.5199 31.58L22.4599 30.86C22.3899 30.19 21.7399 24.2 21.0999 18.4C20.9399 16.94 20.6699 14.44 20.4899 12.85C20.3199 11.25 20.1699 9.93998 20.1599 9.93998C20.1599 9.92998 20.0599 9.89998 19.9399 9.85998C19.7599 9.80998 19.6999 9.86998 19.5299 10.27Z" fill="white"/>
<path fill-rule="evenodd" clip-rule="evenodd" d="M38.7 25.8501V29.6001H39.3H39.9L39.92 26.4201L39.95 23.2501L40.93 23.2201L41.9 23.1901V26.4001V29.6001H42.55H43.2V25.8501V22.1001H40.95H38.7V25.8501Z" fill="white"/>
<path fill-rule="evenodd" clip-rule="evenodd" d="M45.8 22.21C45.36 22.39 44.9 22.8 44.67 23.23C44.46 23.63 44.45 23.76 44.45 25.85V28.05L44.74 28.58C45.17 29.36 45.71 29.65 46.7 29.65C47.61 29.65 48.18 29.38 48.65 28.72L48.95 28.28L48.98 26.12C49.02 23.72 48.97 23.4 48.48 22.84C48 22.3 47.52 22.1 46.73 22.11C46.36 22.11 45.94 22.16 45.8 22.21ZM47.17 23.35C47.28 23.38 47.46 23.53 47.57 23.68C47.83 24.07 47.9 27.41 47.65 27.93C47.37 28.53 46.54 28.7 46.04 28.26C45.76 28.03 45.76 28 45.67 26.4C45.57 24.52 45.62 24.01 45.96 23.61C46.28 23.23 46.55 23.17 47.17 23.35Z" fill="white"/>
<path fill-rule="evenodd" clip-rule="evenodd" d="M50.3 25.8501V29.6001H50.9H51.49L51.52 28.1701L51.55 26.7501L52.56 26.7001C53.46 26.6601 53.6 26.6201 53.93 26.3801C54.43 25.9901 54.68 25.6001 54.81 25.0001C55 24.1301 54.78 23.2701 54.22 22.6701C53.82 22.2501 53.16 22.1001 51.63 22.1001H50.3V25.8501ZM53.35 23.5501C53.56 23.7501 53.6 23.8901 53.6 24.4001C53.6 24.9101 53.56 25.0501 53.36 25.2501C53.09 25.5201 52.65 25.6301 52 25.5801L51.55 25.5501L51.52 24.4201L51.49 23.3001H52.3C53.03 23.3001 53.13 23.3301 53.35 23.5501Z" fill="white"/>
<path fill-rule="evenodd" clip-rule="evenodd" d="M55.2 22.6501V23.2001H56H56.8V26.4001V29.6001H57.45H58.1V26.4001V23.2001H58.9H59.7V22.6501V22.1001H57.45H55.2V22.6501Z" fill="white"/>
<path fill-rule="evenodd" clip-rule="evenodd" d="M61.66 22.6201C61.58 22.9101 61.1 24.5601 60.61 26.2901C60.11 28.0201 59.7 29.4701 59.7 29.5201C59.7 29.5601 59.98 29.6001 60.33 29.6001H60.96L61.16 28.8201L61.36 28.0501L62.41 28.0201L63.46 27.9901L63.66 28.7601C63.76 29.1801 63.9 29.5401 63.96 29.5701C64.02 29.5901 64.32 29.6001 64.62 29.5801L65.17 29.5501L64.1 25.8501L63.03 22.1501L62.42 22.1201L61.82 22.0901L61.66 22.6201ZM63.15 26.7701C63.18 26.8701 63 26.9001 62.45 26.9001C62.04 26.9001 61.7 26.8601 61.7 26.8101C61.7 26.7601 61.83 26.1901 61.99 25.5401C62.15 24.8801 62.31 24.2101 62.35 24.0501C62.41 23.8001 62.48 24.0101 62.76 25.2001C62.95 26.0001 63.12 26.7101 63.15 26.7701Z" fill="white"/>
<path fill-rule="evenodd" clip-rule="evenodd" d="M66.58 24.8701C66.55 28.0101 66.51 28.2101 65.8 28.6301L65.42 28.8501L65.6 29.3001C65.75 29.6801 65.81 29.7401 66.01 29.7101C66.67 29.6201 67.3 28.9801 67.56 28.1801C67.68 27.7801 67.74 27.1201 67.77 25.4701L67.82 23.3001H68.66H69.5V26.4501V29.6001H70.1H70.7V25.8501V22.1001H68.65H66.61L66.58 24.8701Z" fill="white"/>
<path fill-rule="evenodd" clip-rule="evenodd" d="M39.69 33.6401C39.12 33.8401 38.73 34.1701 38.51 34.6301C38.39 34.8701 38.3 35.1101 38.3 35.1701C38.3 35.2301 38.5 35.3301 38.74 35.3901C38.98 35.4501 39.25 35.5201 39.34 35.5601C39.45 35.6001 39.5 35.5701 39.5 35.4501C39.5 35.3601 39.63 35.1501 39.79 34.9901C40.02 34.7701 40.18 34.7001 40.48 34.7001C40.7 34.7001 40.96 34.7301 41.05 34.7601C41.33 34.8701 41.5 35.3601 41.5 36.0501V36.7001H40.55H39.6V37.2501V37.8001H40.55H41.5V38.5401C41.5 39.1901 41.47 39.3201 41.25 39.5801C41.11 39.7501 40.87 39.9101 40.71 39.9501C40.29 40.0401 39.75 39.7801 39.59 39.4101C39.43 39.0501 39.4 39.0501 38.77 39.2601C38.26 39.4301 38.25 39.4501 38.41 39.8701C38.69 40.6301 39.49 41.1001 40.47 41.1001C41.27 41.1001 41.83 40.8801 42.22 40.4201C42.69 39.8601 42.75 39.5101 42.75 37.3001C42.75 34.9801 42.66 34.5501 42.05 34.0101C41.48 33.5201 40.47 33.3601 39.69 33.6401Z" fill="white"/>
<path fill-rule="evenodd" clip-rule="evenodd" d="M72.76 33.65C72.29 33.82 71.85 34.22 71.57 34.75C71.39 35.1 71.36 35.36 71.32 36.9C71.3 37.93 71.32 38.9 71.39 39.25C71.61 40.47 72.38 41.1 73.62 41.1C74.43 41.1 74.83 40.95 75.29 40.49C75.85 39.93 75.89 39.74 75.91 37.37C75.92 35.33 75.91 35.19 75.7 34.76C75.19 33.71 73.93 33.23 72.76 33.65ZM74.32 34.99L74.65 35.28V37.34V39.4L74.4 39.65C73.91 40.14 73.03 40.04 72.76 39.45C72.52 38.96 72.53 35.45 72.76 35.12C73.11 34.62 73.84 34.56 74.32 34.99Z" fill="white"/>
<path fill-rule="evenodd" clip-rule="evenodd" d="M78.45 33.66C77.92 33.85 77.44 34.34 77.23 34.89C77.08 35.28 77.05 35.68 77.05 37.4C77.05 39.41 77.06 39.47 77.31 39.95C77.46 40.25 77.73 40.57 77.99 40.75C78.37 41.01 78.52 41.05 79.23 41.08C79.94 41.11 80.11 41.08 80.5 40.87C80.95 40.64 81.46 40.02 81.52 39.66C81.54 39.51 81.43 39.43 81.01 39.29C80.46 39.1 80.3 39.11 80.3 39.35C80.3 39.6 79.79 39.9 79.38 39.9C78.42 39.9 78.3 39.61 78.3 37.3C78.3 35.78 78.33 35.43 78.47 35.2C78.65 34.88 78.98 34.7 79.36 34.7C79.63 34.7 80.2 34.96 80.2 35.08C80.2 35.13 80.26 35.24 80.33 35.34C80.46 35.52 80.49 35.52 81.01 35.35C81.31 35.25 81.56 35.16 81.58 35.15C81.67 35.07 81.17 34.29 80.86 34.02C80.27 33.5 79.28 33.36 78.45 33.66Z" fill="white"/>
<path fill-rule="evenodd" clip-rule="evenodd" d="M126.06 33.6501C125.54 33.8301 125.04 34.3401 124.83 34.8901C124.68 35.2801 124.65 35.6801 124.65 37.4001C124.65 39.4101 124.66 39.4701 124.91 39.9501C125.06 40.2501 125.33 40.5701 125.59 40.7501C125.97 41.0101 126.12 41.0501 126.83 41.0801C127.54 41.1101 127.71 41.0801 128.1 40.8701C128.55 40.6401 129.06 40.0201 129.12 39.6601C129.14 39.5101 129.03 39.4301 128.6 39.2801C128.18 39.1401 128.04 39.1201 128.01 39.2201C127.99 39.2901 127.84 39.4701 127.69 39.6201C127.48 39.8401 127.32 39.9001 127 39.9001C126.02 39.9001 125.9 39.6201 125.9 37.3001C125.9 35.3301 125.96 35.0401 126.45 34.8201C126.59 34.7501 126.82 34.7001 126.96 34.7001C127.23 34.7001 127.8 34.9601 127.8 35.0801C127.8 35.1301 127.86 35.2401 127.93 35.3401C128.05 35.5101 128.09 35.5101 128.63 35.3501L129.2 35.1901L129.05 34.8201C128.85 34.3201 128.21 33.7401 127.74 33.6101C127.22 33.4601 126.53 33.4801 126.06 33.6501Z" fill="white"/>
<path fill-rule="evenodd" clip-rule="evenodd" d="M44.6801 36.3201C44.6501 38.9301 44.6401 39.0701 44.4201 39.4701C44.2901 39.7201 44.0601 39.9701 43.8701 40.0601C43.7001 40.1501 43.5401 40.2301 43.5301 40.2501C43.4501 40.3101 43.8401 41.2001 43.9501 41.2001C44.1701 41.2001 44.7401 40.9201 44.9801 40.7001C45.6701 40.0501 45.8001 39.4601 45.8001 36.8201V34.7001H46.6501H47.5001V37.9001V41.1001H48.1501H48.8001V37.3501V33.6001H46.7601H44.7201L44.6801 36.3201Z" fill="white"/>
<path fill-rule="evenodd" clip-rule="evenodd" d="M50.3 37.3501V41.1001L52.38 41.0801L54.45 41.0501L54.48 40.4701L54.5 39.9001H53H51.5V38.8501V37.8001H52.75H54V37.2501V36.7001H52.75H51.5V35.7001V34.7101L52.98 34.6801L54.45 34.6501L54.46 34.1201L54.48 33.6001H52.39H50.3V37.3501Z" fill="white"/>
<path fill-rule="evenodd" clip-rule="evenodd" d="M55.5 37.3501V41.1001H56.1H56.7V39.4501V37.8001H57.11C57.59 37.8001 58.16 38.0501 58.31 38.3201C58.37 38.4301 58.56 39.0801 58.74 39.7801L59.07 41.0501L59.68 41.0801C60.02 41.1001 60.3 41.0701 60.3 41.0201C60.3 40.8101 59.56 38.1201 59.44 37.8801C59.36 37.7301 59.16 37.5101 59 37.3901L58.71 37.1701L58.96 36.9801C59.31 36.7001 59.53 36.2001 59.84 35.0001C59.99 34.4201 60.14 33.8701 60.16 33.7701C60.21 33.6201 60.14 33.6001 59.61 33.6001H59.01L58.9 34.0201C58.4 35.9301 58.35 36.0601 58.04 36.3701C57.76 36.6601 57.65 36.7001 57.21 36.7001H56.7V35.1501V33.6001H56.1H55.5V37.3501Z" fill="white"/>
<path fill-rule="evenodd" clip-rule="evenodd" d="M60.6 34.1501V34.7001H61.45H62.3V37.9001V41.1001H62.9H63.5V37.9001V34.7001H64.35H65.2V34.1501V33.6001H62.9H60.6V34.1501Z" fill="white"/>
<path fill-rule="evenodd" clip-rule="evenodd" d="M66 37.3501V41.1101L66.62 41.0801L67.25 41.0501L67.23 39.6201L67.21 38.2001H67.99C69.76 38.2001 70.55 37.4701 70.54 35.8501C70.54 34.8701 70.3 34.3301 69.68 33.9301C69.28 33.6601 69.22 33.6501 67.63 33.6201L66 33.5901V37.3501ZM68.8 34.8301C69.41 35.1301 69.54 36.2301 69.02 36.7501C68.8 36.9701 68.69 37.0001 68 37.0001H67.24L67.21 35.9501C67.2 35.3701 67.22 34.8501 67.25 34.8001C67.34 34.6601 68.5 34.6801 68.8 34.8301Z" fill="white"/>
<path fill-rule="evenodd" clip-rule="evenodd" d="M82.6 37.3501V41.1001H84.7H86.8V40.5001V39.9001H85.35H83.9V38.8501V37.8001H85.15H86.4V37.2501V36.7001H85.15H83.9V35.7001V34.7001H85.35H86.8V34.1501V33.6001H84.7H82.6V37.3501Z" fill="white"/>
<path fill-rule="evenodd" clip-rule="evenodd" d="M87.2 34.1501V34.7001H88.05H88.9V37.9001V41.1001H89.5H90.1V37.9001V34.7001H90.95H91.8V34.1501V33.6001H89.5H87.2V34.1501Z" fill="white"/>
<path fill-rule="evenodd" clip-rule="evenodd" d="M92.6 37.3501V41.1001H94.6999H96.7999V40.5001V39.9001H95.2999H93.79L93.82 38.8701L93.85 37.8501L95.1299 37.8201L96.3999 37.7901V37.2501V36.7001H95.0999H93.8V35.7001V34.7001H95.2999H96.7999V34.1501V33.6001H94.6999H92.6V37.3501Z" fill="white"/>
<path fill-rule="evenodd" clip-rule="evenodd" d="M97.8 37.3501V41.1001H99.18C100.84 41.1001 101.22 41.0101 101.76 40.4601C102.63 39.5901 102.55 37.8901 101.61 37.3201L101.32 37.1401L101.6 36.9801C102.27 36.6001 102.46 35.3001 101.96 34.4601C101.53 33.7301 101.14 33.6001 99.32 33.6001H97.8V37.3501ZM100.75 34.9501C101.08 35.2701 101.1 35.9501 100.79 36.3401C100.59 36.5901 100.54 36.6101 99.84 36.5801C99.43 36.5601 99.1 36.5201 99.1 36.4701C99.1 36.4301 99.1 36.0201 99.1 35.5501V34.7001H99.8C100.42 34.7001 100.54 34.7301 100.75 34.9501ZM100.57 37.8001C100.94 37.9301 101.13 38.2601 101.13 38.7701C101.13 39.3401 101.02 39.5801 100.7 39.7501C100.37 39.9201 99.14 39.9601 99.08 39.8001C99.07 39.7501 99.06 39.2501 99.08 38.7001L99.11 37.7001H99.69C100.01 37.7001 100.41 37.7501 100.57 37.8001Z" fill="white"/>
<path fill-rule="evenodd" clip-rule="evenodd" d="M103.6 37.3501V41.1001H104.85C106.43 41.1001 106.96 40.9901 107.49 40.5401C108.42 39.7401 108.43 37.9001 107.51 37.0701C107.07 36.6701 106.45 36.5001 105.45 36.5001H104.8V35.0501V33.6001H104.2H103.6V37.3501ZM106.43 37.8101C106.74 37.9501 106.9 38.2901 106.9 38.8001C106.9 39.6501 106.58 39.9001 105.5 39.9001H104.8V38.8001V37.7001H105.5C105.88 37.7001 106.3 37.7501 106.43 37.8101Z" fill="white"/>
<path fill-rule="evenodd" clip-rule="evenodd" d="M108.8 37.3501V41.1001H109.4H110L110.01 37.5201C110.01 35.5601 110.03 33.8701 110.05 33.7701C110.08 33.6201 110 33.6001 109.44 33.6001H108.8V37.3501Z" fill="white"/>
<path fill-rule="evenodd" clip-rule="evenodd" d="M111.9 35.3901L112.81 37.1801L111.86 39.0901C111.33 40.1401 110.9 41.0201 110.9 41.0501C110.9 41.0801 111.2 41.1001 111.58 41.1001L112.25 41.0901L112.84 39.8001C113.17 39.0801 113.46 38.5001 113.49 38.5001C113.52 38.5001 113.82 39.0901 114.15 39.8001L114.74 41.1001H115.43C115.81 41.1001 116.1 41.0601 116.08 41.0101C116.07 40.9501 115.62 40.0801 115.1 39.0601L114.15 37.2101L115.05 35.4001L115.96 33.6001H115.27H114.59L114.03 34.7701L113.47 35.9501L113.24 35.4501C113.11 35.1701 112.87 34.6501 112.7 34.2701L112.4 33.6001H111.7H110.99L111.9 35.3901Z" fill="white"/>
<path fill-rule="evenodd" clip-rule="evenodd" d="M119 33.6401C119 33.7001 120.53 38.1301 120.77 38.7701C120.93 39.2201 120.9 39.4501 120.59 39.8401C120.44 40.0301 120.29 40.1001 120.04 40.1001H119.7V40.6001V41.1001H120.21C120.92 41.1001 121.35 40.8701 121.67 40.3201C121.82 40.0701 122.35 38.5501 122.86 36.9501C123.36 35.3601 123.8 33.9501 123.84 33.8201C123.92 33.5901 123.9 33.5901 123.3 33.6201L122.68 33.6501L122.12 35.6301C121.81 36.7101 121.53 37.5701 121.49 37.5301C121.43 37.4601 120.95 35.9401 120.43 34.1201L120.27 33.6001H119.64C119.29 33.6001 119 33.6201 119 33.6401Z" fill="white"/>
<path fill-rule="evenodd" clip-rule="evenodd" d="M130.78 36.3701C130.75 39.4901 130.72 39.6001 129.98 40.0901L129.62 40.3201L129.77 40.7601C129.94 41.2601 130.05 41.2901 130.67 40.9901C131.68 40.5001 131.9 39.8001 131.97 36.8701L132.03 34.7001H132.86H133.7V37.9001V41.1001H134.3H134.9V37.3501V33.6001H132.86H130.81L130.78 36.3701Z" fill="white"/>
<path fill-rule="evenodd" clip-rule="evenodd" d="M135.9 33.6801C135.9 33.7301 136.32 35.0001 136.84 36.5001C137.74 39.1001 137.78 39.2501 137.65 39.5601C137.5 39.9401 137.24 40.1001 136.81 40.1001C136.5 40.1001 136.5 40.1101 136.5 40.6101V41.1201L137.22 41.0801C137.91 41.0401 137.94 41.0301 138.32 40.6101C138.72 40.1501 138.76 40.0401 140.33 35.0201L140.78 33.6001H140.16H139.55L139.01 35.5501C138.71 36.6301 138.44 37.5301 138.4 37.5501C138.37 37.5701 138.07 36.7001 137.74 35.6201L137.15 33.6501L136.52 33.6201C136.18 33.6001 135.9 33.6301 135.9 33.6801Z" fill="white"/>
<path fill-rule="evenodd" clip-rule="evenodd" d="M141.7 37.3501V41.1001H142.3H142.9V37.9001V34.7001H144.35H145.8V34.1501V33.6001H143.75H141.7V37.3501Z" fill="white"/>
</g>
<defs>
<clipPath id="clip0_958_479">
<rect width="145.8" height="41.2" fill="white"/>
</clipPath>
</defs>
</svg>
