<svg width="146" height="42" fill="none" xmlns="http://www.w3.org/2000/svg"><g clip-path="url(#clip0_958_479)" fill-rule="evenodd" clip-rule="evenodd" fill="#fff"><path d="M14.15.07c-.11.02-.56.11-1 .19-2.81.53-5.82 2.1-7.99 4.15-.53.5-.95.93-.93.96.02.02 3.05.39 6.73.83 3.68.44 6.81.81 6.96.83.21.03.28-.02.33-.2.03-.12.18-.37.34-.56l.29-.33-1.7-2.97L15.48 0l-.56.01c-.31.01-.66.03-.77.06zm3.37.02c.02.06.53 1.29 1.13 2.75l1.1 2.66h.54c.84 0 1.52.4 1.96 1.15.1.16.32.13 3.24-.57l3.12-.74-.99-.96C25.97 2.8 23.8 1.5 21.58.76c-1.59-.53-4.16-.95-4.06-.67zM38.8 11.85v6.05h2.5v-4.37l1.24-.05c1.11-.04 1.3-.08 1.88-.35 1.15-.54 1.79-1.45 2.01-2.84.12-.81-.01-1.83-.32-2.54-.45-1.02-1.45-1.67-2.83-1.85-.4-.05-1.57-.1-2.6-.1H38.8v6.05zm4.6-3.5c.4.21.6.63.6 1.25 0 1.14-.43 1.5-1.79 1.5h-.91V8.2h.9c.62 0 1 .05 1.2.15zm7.43-2.41c-.58.19-1.04.49-1.53 1.02-.9.98-1.03 1.66-.98 5.24.04 2.2.08 2.85.21 3.25.54 1.66 1.82 2.51 3.72 2.49 1.61-.02 2.71-.68 3.37-2.02l.33-.67.03-3.13c.03-3.51-.01-3.83-.64-4.8-.68-1.04-1.7-1.52-3.17-1.51-.51 0-1.11.06-1.34.13zm2.12 2.48c.51.4.55.64.55 3.53 0 2.92-.03 3.11-.6 3.4-.16.08-.51.15-.79.15-.61 0-1.05-.33-1.21-.88-.05-.21-.1-1.47-.1-2.85 0-2.76.05-3.02.62-3.37.45-.28 1.17-.27 1.53.02zm7.98-2.48c-.59.19-1.04.49-1.53 1.02-.9.97-1.03 1.72-.98 5.26.04 2.35.07 2.7.26 3.29.37 1.14 1.03 1.82 2.17 2.25.72.27 2.19.25 2.97-.05 1.03-.4 1.99-1.49 2.14-2.43l.06-.33-1.02-.28c-.56-.16-1.08-.31-1.15-.34-.1-.03-.2.09-.31.36-.21.53-.66.81-1.3.81-.57 0-.86-.17-1.12-.63-.15-.28-.17-.64-.17-3.02 0-2.39.02-2.74.18-3.02.24-.46.69-.66 1.29-.61.56.06.91.33 1.17.89l.16.36 1.16-.35 1.17-.35-.1-.36c-.27-.98-1.02-1.85-1.96-2.29-.49-.23-.72-.27-1.62-.29-.67-.02-1.2.02-1.47.11zm9.75 0c-1.03.38-1.72 1-2.17 1.96l-.26.55-.03 3.13c-.03 2.68-.01 3.21.13 3.69.46 1.58 1.37 2.39 2.94 2.64 1.82.28 3.52-.51 4.16-1.95.44-.96.43-.96-.65-1.27-1.49-.44-1.35-.44-1.53.01-.22.58-.67.82-1.41.77-.49-.03-.63-.08-.82-.3-.32-.38-.36-.79-.32-3.7l.03-2.59.37-.34c.32-.29.45-.34.86-.34.66 0 1.13.33 1.35.94l.12.34 1.17-.36c1.35-.4 1.31-.34.77-1.43-.33-.67-.92-1.22-1.68-1.58-.48-.22-.72-.26-1.61-.28-.69-.02-1.17.02-1.42.11zm7.52 5.91v6.05h7v-2.4h-4.5v-2.6h3.9v-2.3h-3.9V8.2h4.5V5.8h-7v6.05zm8.4-6.03c-.01.02-.02.54-.03 1.16l-.02 1.12h2.55v9.8h2.5V8.1h2.6V5.8h-3.8c-2.09 0-3.8.01-3.8.02zm9.6 6.03v6.05h2.35l1.65-3.22 1.65-3.22.03 3.22.02 3.22h2.5V5.8h-2.21l-1.74 3.52-1.73 3.53-.01-3.53-.01-3.52h-2.5v6.05zM27.8 7.11c-.8.1-2.3.29-3.34.41l-1.89.23-.17.5c-.09.27-.19.54-.21.6-.02.05 2.12 2.15 4.75 4.65 5.49 5.21 5.64 5.35 5.74 5.25.04-.03.07-1.09.07-2.33 0-1.99-.03-2.4-.23-3.32-.44-2.01-1.15-3.79-2.15-5.38-.6-.95-.36-.89-2.57-.61zm-25.38.66C.58 10.82-.27 14.51.09 17.85c.07.6.14 1.11.16 1.13.03.03 7.87-4.56 16.43-9.61 1.46-.85 1.53-.91 1.47-1.16-.04-.14-.07-.27-.09-.28-.01-.01-3.1-.18-6.86-.37-3.77-.2-7.19-.38-7.61-.41l-.76-.06-.41.68zm7.28 7.29C4.84 18.27.82 20.94.77 20.99c-.22.22 1.04 3.02 2.02 4.47 1.28 1.9 2.67 3.27 4.6 4.56l1.04.68 5.28-10.61c4.88-9.79 5.28-10.63 5.12-10.75-.1-.07-.2-.13-.23-.13-.03.01-4.03 2.64-8.9 5.85zm11.48-5.39c-.1.02-.18.08-.18.11-.01.13 3.33 20.87 3.36 20.91.06.07 1.81-1.13 2.54-1.74 2.27-1.89 4.03-4.41 4.96-7.09.13-.38.24-.75.24-.83 0-.17-10.48-11.43-10.63-11.42-.07.01-.2.03-.29.06zm-1.65.6c-.12.27-1.57 3.56-3.23 7.33-5.45 12.37-6.12 13.91-6.09 13.94.17.13 1.67.59 2.6.8 3.01.67 6.42.46 9.18-.56l.53-.2-.06-.72c-.07-.67-.72-6.66-1.36-12.46-.16-1.46-.43-3.96-.61-5.55-.17-1.6-.32-2.91-.33-2.91 0-.01-.1-.04-.22-.08-.18-.05-.24.01-.41.41zM38.7 25.85v3.75h1.2l.02-3.18.03-3.17.98-.03.97-.03v6.41h1.3v-7.5h-4.5v3.75zm7.1-3.64c-.44.18-.9.59-1.13 1.02-.21.4-.22.53-.22 2.62v2.2l.29.53c.43.78.97 1.07 1.96 1.07.91 0 1.48-.27 1.95-.93l.3-.44.03-2.16c.04-2.4-.01-2.72-.5-3.28-.48-.54-.96-.74-1.75-.73-.37 0-.79.05-.93.1zm1.37 1.14c.11.03.29.18.4.33.26.39.33 3.73.08 4.25-.28.6-1.11.77-1.61.33-.28-.23-.28-.26-.37-1.86-.1-1.88-.05-2.39.29-2.79.32-.38.59-.44 1.21-.26zm3.13 2.5v3.75h1.19l.03-1.43.03-1.42 1.01-.05c.9-.04 1.04-.08 1.37-.32.5-.39.75-.78.88-1.38.19-.87-.03-1.73-.59-2.33-.4-.42-1.06-.57-2.59-.57H50.3v3.75zm3.05-2.3c.21.2.25.34.25.85s-.04.65-.24.85c-.27.27-.71.38-1.36.33l-.45-.03-.03-1.13-.03-1.12h.81c.73 0 .83.03 1.05.25zm1.85-.9v.55h1.6v6.4h1.3v-6.4h1.6v-1.1h-4.5v.55zm6.46-.03c-.08.29-.56 1.94-1.05 3.67-.5 1.73-.91 3.18-.91 3.23 0 .04.28.08.63.08h.63l.2-.78.2-.77 1.05-.03 1.05-.03.2.77c.1.42.24.78.3.81.06.02.36.03.66.01l.55-.03-1.07-3.7-1.07-3.7-.61-.03-.6-.03-.16.53zm1.49 4.15c.03.1-.15.13-.7.13-.41 0-.75-.04-.75-.09 0-.05.13-.62.29-1.27.16-.66.32-1.33.36-1.49.06-.25.13-.04.41 1.15.19.8.36 1.51.39 1.57zm3.43-1.9c-.03 3.14-.07 3.34-.78 3.76l-.38.22.18.45c.15.38.21.44.41.41.66-.09 1.29-.73 1.55-1.53.12-.4.18-1.06.21-2.71l.05-2.17h1.68v6.3h1.2v-7.5h-4.09l-.03 2.77zm-26.89 8.77c-.57.2-.96.53-1.18.99-.12.24-.21.48-.21.54 0 .06.2.16.44.22s.51.13.6.17c.11.04.16.01.16-.11 0-.09.13-.3.29-.46.23-.22.39-.29.69-.29.22 0 .48.03.57.06.28.11.45.6.45 1.29v.65h-1.9v1.1h1.9v.74c0 .65-.03.78-.25 1.04-.14.17-.38.33-.54.37-.42.09-.96-.17-1.12-.54-.16-.36-.19-.36-.82-.15-.51.17-.52.19-.36.61.28.76 1.08 1.23 2.06 1.23.8 0 1.36-.22 1.75-.68.47-.56.53-.91.53-3.12 0-2.32-.09-2.75-.7-3.29-.57-.49-1.58-.65-2.36-.37zm33.07.01c-.47.17-.91.57-1.19 1.1-.18.35-.21.61-.25 2.15-.02 1.03 0 2 .07 2.35.22 1.22.99 1.85 2.23 1.85.81 0 1.21-.15 1.67-.61.56-.56.6-.75.62-3.12.01-2.04 0-2.18-.21-2.61-.51-1.05-1.77-1.53-2.94-1.11zm1.56 1.34l.33.29v4.12l-.25.25c-.49.49-1.37.39-1.64-.2-.24-.49-.23-4 0-4.33.35-.5 1.08-.56 1.56-.13zm4.13-1.33c-.53.19-1.01.68-1.22 1.23-.15.39-.18.79-.18 2.51 0 2.01.01 2.07.26 2.55.15.3.42.62.68.8.38.26.53.3 1.24.33.71.03.88 0 1.27-.21.45-.23.96-.85 1.02-1.21.02-.15-.09-.23-.51-.37-.55-.19-.71-.18-.71.06 0 .25-.51.55-.92.55-.96 0-1.08-.29-1.08-2.6 0-1.52.03-1.87.17-2.1.18-.32.51-.5.89-.5.27 0 .84.26.84.38 0 .05.06.16.13.26.13.18.16.18.68.01.3-.1.55-.19.57-.2.09-.08-.41-.86-.72-1.13-.59-.52-1.58-.66-2.41-.36zm47.61-.01c-.52.18-1.02.69-1.23 1.24-.15.39-.18.79-.18 2.51 0 2.01.01 2.07.26 2.55.15.3.42.62.68.8.38.26.53.3 1.24.33.71.03.88 0 1.27-.21.45-.23.96-.85 1.02-1.21.02-.15-.09-.23-.52-.38-.42-.14-.56-.16-.59-.06-.02.07-.17.25-.32.4-.21.22-.37.28-.69.28-.98 0-1.1-.28-1.1-2.6 0-1.97.06-2.26.55-2.48.14-.07.37-.12.51-.12.27 0 .84.26.84.38 0 .05.06.16.13.26.12.17.16.17.7.01l.57-.16-.15-.37c-.2-.5-.84-1.08-1.31-1.21-.52-.15-1.21-.13-1.68.04zm-81.38 2.67c-.03 2.61-.04 2.75-.26 3.15-.13.25-.36.5-.55.59-.17.09-.33.17-.34.19-.08.06.31.95.42.95.22 0 .79-.28 1.03-.5.69-.65.82-1.24.82-3.88V34.7h1.7v6.4h1.3v-7.5h-4.08l-.04 2.72zm5.62 1.03v3.75l2.08-.02 2.07-.03.03-.58.02-.57h-3v-2.1H54v-1.1h-2.5v-1.99l1.48-.03 1.47-.03.01-.53.02-.52H50.3v3.75zm5.2 0v3.75h1.2v-3.3h.41c.48 0 1.05.25 1.2.52.06.11.25.76.43 1.46l.33 1.27.61.03c.34.02.62-.01.62-.06 0-.21-.74-2.9-.86-3.14a1.83 1.83 0 00-.44-.49l-.29-.22.25-.19c.35-.28.57-.78.88-1.98.15-.58.3-1.13.32-1.23.05-.15-.02-.17-.55-.17h-.6l-.11.42c-.5 1.91-.55 2.04-.86 2.35-.28.29-.39.33-.83.33h-.51v-3.1h-1.2v3.75zm5.1-3.2v.55h1.7v6.4h1.2v-6.4h1.7v-1.1h-4.6v.55zm5.4 3.2v3.76l.62-.03.63-.03-.02-1.43-.02-1.42h.78c1.77 0 2.56-.73 2.55-2.35 0-.98-.24-1.52-.86-1.92-.4-.27-.46-.28-2.05-.31L66 33.59v3.76zm2.8-2.52c.61.3.74 1.4.22 1.92-.22.22-.33.25-1.02.25h-.76l-.03-1.05c-.01-.58.01-1.1.04-1.15.09-.14 1.25-.12 1.55.03zm13.8 2.52v3.75h4.2v-1.2h-2.9v-2.1h2.5v-1.1h-2.5v-2h2.9v-1.1h-4.2v3.75zm4.6-3.2v.55h1.7v6.4h1.2v-6.4h1.7v-1.1h-4.6v.55zm5.4 3.2v3.75h4.2v-1.2h-3.01l.03-1.03.03-1.02 1.28-.03 1.27-.03V36.7h-2.6v-2h3v-1.1h-4.2v3.75zm5.2 0v3.75h1.38c1.66 0 2.04-.09 2.58-.64.87-.87.79-2.57-.15-3.14l-.29-.18.28-.16c.67-.38.86-1.68.36-2.52-.43-.73-.82-.86-2.64-.86H97.8v3.75zm2.95-2.4c.33.32.35 1 .04 1.39-.2.25-.25.27-.95.24-.41-.02-.74-.06-.74-.11V34.7h.7c.62 0 .74.03.95.25zm-.18 2.85c.37.13.56.46.56.97 0 .57-.11.81-.43.98-.33.17-1.56.21-1.62.05-.01-.05-.02-.55 0-1.1l.03-1h.58c.32 0 .72.05.88.1zm3.03-.45v3.75h1.25c1.58 0 2.11-.11 2.64-.56.93-.8.94-2.64.02-3.47-.44-.4-1.06-.57-2.06-.57h-.65v-2.9h-1.2v3.75zm2.83.46c.31.14.47.48.47.99 0 .85-.32 1.1-1.4 1.1h-.7v-2.2h.7c.38 0 .8.05.93.11zm2.37-.46v3.75h1.2l.01-3.58c0-1.96.02-3.65.04-3.75.03-.15-.05-.17-.61-.17h-.64v3.75zm3.1-1.96l.91 1.79-.95 1.91c-.53 1.05-.96 1.93-.96 1.96 0 .03.3.05.68.05l.67-.01.59-1.29c.33-.72.62-1.3.65-1.3.03 0 .33.59.66 1.3l.59 1.3h.69c.38 0 .67-.04.65-.09-.01-.06-.46-.93-.98-1.95l-.95-1.85.9-1.81.91-1.8h-1.37l-.56 1.17-.56 1.18-.23-.5c-.13-.28-.37-.8-.54-1.18l-.3-.67h-1.41l.91 1.79zm7.1-1.75c0 .06 1.53 4.49 1.77 5.13.16.45.13.68-.18 1.07-.15.19-.3.26-.55.26h-.34v1h.51c.71 0 1.14-.23 1.46-.78.15-.25.68-1.77 1.19-3.37.5-1.59.94-3 .98-3.13.08-.23.06-.23-.54-.2l-.62.03-.56 1.98c-.31 1.08-.59 1.94-.63 1.9-.06-.07-.54-1.59-1.06-3.41l-.16-.52h-.63c-.35 0-.64.02-.64.04zm11.78 2.73c-.03 3.12-.06 3.23-.8 3.72l-.36.23.15.44c.17.5.28.53.9.23 1.01-.49 1.23-1.19 1.3-4.12l.06-2.17h1.67v6.4h1.2v-7.5h-4.09l-.03 2.77zm5.12-2.69c0 .05.42 1.32.94 2.82.9 2.6.94 2.75.81 3.06-.15.38-.41.54-.84.54-.31 0-.31.01-.31.51v.51l.72-.04c.69-.04.72-.05 1.1-.47.4-.46.44-.57 2.01-5.59l.45-1.42h-1.23l-.54 1.95c-.3 1.08-.57 1.98-.61 2-.03.02-.33-.85-.66-1.93l-.59-1.97-.63-.03c-.34-.02-.62.01-.62.06zm5.8 3.67v3.75h1.2v-6.4h2.9v-1.1h-4.1v3.75z"/></g><defs><clipPath id="clip0_958_479"><path fill="#fff" d="M0 0h145.8v41.2H0z"/></clipPath></defs></svg>